<?xml version="1.0" encoding="UTF-8"?>
<!DOCTYPE svg PUBLIC "-//W3C//DTD SVG 1.1//EN" "http://www.w3.org/Graphics/SVG/1.1/DTD/svg11.dtd">
<!-- Creator: CorelDRAW 2021 (64 Bit) -->
<svg xmlns="http://www.w3.org/2000/svg" xml:space="preserve" width="210mm" height="297mm" version="1.1" style="shape-rendering:geometricPrecision; text-rendering:geometricPrecision; image-rendering:optimizeQuality; fill-rule:evenodd; clip-rule:evenodd"
viewBox="0 0 21000 29700"
 xmlns:xlink="http://www.w3.org/1999/xlink"
 xmlns:xodm="http://www.corel.com/coreldraw/odm/2003">
 <defs>
  <style type="text/css">
   <![CDATA[
    .fil0 {fill:none}
   ]]>
  </style>
   <clipPath id="id0">
    <path d="M6647.71 12689.62l-147.61 420.18 791.82 1757.29 -379.29 1844.23 516.68 -40.74 226.2 -488.84 64.29 -392.82 357.3 844.22 488.12 -43.27 211.17 -461.13 -471.69 -960.9 409.19 14.33 83.73 -209.81 282.67 1573.86 426.53 -35.25 170.74 -353.29 145.35 320.71 56.92 -0.82 210.58 -403.83 80.42 378.14 391.21 -33.32 153.1 -297.02 61.93 280.99 766.46 -63.13 124.41 -238.19 49.76 205.25 393.85 -13.36 199.14 -323.84 188.16 287.43 298.15 -20.9 211.32 -327.62 -311.08 -1107.29 154.55 11.56 111.47 -175.57c5.14,34.41 11.65,71.95 20.07,112.24 24.35,116.49 64.71,255.95 104.37,358.84 39.66,102.89 78.63,169.21 113.42,224.49 34.79,55.27 65.41,99.49 90.46,122.44 25.05,22.96 44.53,24.66 50.1,30.62 5.56,5.95 -2.79,16.15 -11.14,26.36 -34.79,52.72 -69.58,105.44 -104.37,158.16 26.44,62.92 52.88,125.84 79.32,187.07 26.45,61.22 52.89,120.75 92.55,170.07 39.66,49.32 92.54,88.43 141.95,108.84 49.4,20.41 95.32,22.11 138.46,-2.55 43.14,-24.66 83.5,-75.68 123.86,-126.7 32.01,-42.52 64.02,-85.04 96.02,-127.55 13.92,74.83 27.84,149.66 41.75,224.49 69.59,1.7 139.17,3.4 208.75,5.1 64.02,-85.04 128.03,-170.07 158.65,-221.09 30.61,-51.02 27.83,-68.02 16,-125 -11.82,-56.97 -32.7,-153.91 -44.53,-259.35 -11.83,-105.44 -14.61,-219.38 -12.53,-357.99 2.09,-138.6 9.05,-301.87 14.62,-409.01 5.56,-107.14 9.74,-158.16 13.91,-209.18 -37.57,-110.54 -75.15,-221.08 -112.72,-331.63 -171.17,-37.41 -342.34,-74.82 -513.52,-112.24 -30.61,42.52 -61.23,85.03 -77.93,103.74 -16.7,18.71 -19.48,13.6 -36.88,-10.21 -17.39,-23.8 -49.4,-66.32 -85.58,-100.33 -36.19,-34.02 -76.54,-59.53 -114.81,-73.13 -38.27,-13.61 -74.46,-15.31 -104.38,-6.8 -29.92,8.5 -53.58,27.21 -70.28,45.06 -16.7,17.86 -26.44,34.87 -36.18,51.87l-173.6 220.64 -30.54 -340.36 -163.24 -31.03 -130.59 252.67 3.63 416.7 -221.27 -775.77 -317.79 -70.1 -159.71 306.69 -246.83 -387.8 -367.12 -68.44 -114.07 215.45 -73.45 -260.63 -784.55 -154.21 -145.39 295 -78.12 -330.78 -442.25 -91.78 -154.37 356.91 16.68 576.15 -433.9 -1050.32 -460.81 -79.41 -139.91 382.2 144.32 789.96 -290.81 -23.47 -174.94 404.52 67.55 449.58 -347.34 -681.8 219.4 -1427.68 -380.05 -72.13 -143.18 372.78 -65.2 338.36 -425.32 -841.79 -482.19 -93.99zm4794.95 2481.63l108.92 430.4 -268.68 8.87 -46.12 -221.34 91.05 -5.76 114.83 -212.17zm-236.01 -931.78l72.62 288.41 -246.9 -13.32 -14.52 -88.74 90.77 4.44 98.03 -190.79zm2572.58 526.74l105.16 420.07 14.13 -410.48 -119.29 -9.59z"/>
   </clipPath>
    <clipPath id="id1">
    </clipPath>
    <clipPath id="id2">
     <path d="M6647.71 12689.62l-147.61 420.18 791.82 1757.29 -379.29 1844.23 516.68 -40.74 226.2 -488.84 64.29 -392.82 357.3 844.22 488.12 -43.27 211.17 -461.13 -471.69 -960.9 409.19 14.33 83.73 -209.81 282.67 1573.86 426.53 -35.25 170.74 -353.29 145.35 320.71 56.92 -0.82 210.58 -403.83 80.42 378.14 391.21 -33.32 153.1 -297.02 61.93 280.99 766.46 -63.13 124.41 -238.19 49.76 205.25 393.85 -13.36 199.14 -323.84 188.16 287.43 298.15 -20.9 211.32 -327.62 -311.08 -1107.29 154.55 11.56 111.47 -175.57c5.14,34.41 11.65,71.95 20.07,112.24 24.35,116.49 64.71,255.95 104.37,358.84 39.66,102.89 78.63,169.21 113.42,224.49 34.79,55.27 65.41,99.49 90.46,122.44 25.05,22.96 44.53,24.66 50.1,30.62 5.56,5.95 -2.79,16.15 -11.14,26.36 -34.79,52.72 -69.58,105.44 -104.37,158.16 26.44,62.92 52.88,125.84 79.32,187.07 26.45,61.22 52.89,120.75 92.55,170.07 39.66,49.32 92.54,88.43 141.95,108.84 49.4,20.41 95.32,22.11 138.46,-2.55 43.14,-24.66 83.5,-75.68 123.86,-126.7 32.01,-42.52 64.02,-85.04 96.02,-127.55 13.92,74.83 27.84,149.66 41.75,224.49 69.59,1.7 139.17,3.4 208.75,5.1 64.02,-85.04 128.03,-170.07 158.65,-221.09 30.61,-51.02 27.83,-68.02 16,-125 -11.82,-56.97 -32.7,-153.91 -44.53,-259.35 -11.83,-105.44 -14.61,-219.38 -12.53,-357.99 2.09,-138.6 9.05,-301.87 14.62,-409.01 5.56,-107.14 9.74,-158.16 13.91,-209.18 -37.57,-110.54 -75.15,-221.08 -112.72,-331.63 -171.17,-37.41 -342.34,-74.82 -513.52,-112.24 -30.61,42.52 -61.23,85.03 -77.93,103.74 -16.7,18.71 -19.48,13.6 -36.88,-10.21 -17.39,-23.8 -49.4,-66.32 -85.58,-100.33 -36.19,-34.02 -76.54,-59.53 -114.81,-73.13 -38.27,-13.61 -74.46,-15.31 -104.38,-6.8 -29.92,8.5 -53.58,27.21 -70.28,45.06 -16.7,17.86 -26.44,34.87 -36.18,51.87l-173.6 220.64 -30.54 -340.36 -163.24 -31.03 -130.59 252.67 3.63 416.7 -221.27 -775.77 -317.79 -70.1 -159.71 306.69 -246.83 -387.8 -367.12 -68.44 -114.07 215.45 -73.45 -260.63 -784.55 -154.21 -145.39 295 -78.12 -330.78 -442.25 -91.78 -154.37 356.91 16.68 576.15 -433.9 -1050.32 -460.81 -79.41 -139.91 382.2 144.32 789.96 -290.81 -23.47 -174.94 404.52 67.55 449.58 -347.34 -681.8 219.4 -1427.68 -380.05 -72.13 -143.18 372.78 -65.2 338.36 -425.32 -841.79 -482.19 -93.99zm4794.95 2481.63l108.92 430.4 -268.68 8.87 -46.12 -221.34 91.05 -5.76 114.83 -212.17zm-236.01 -931.78l72.62 288.41 -246.9 -13.32 -14.52 -88.74 90.77 4.44 98.03 -190.79zm2572.58 526.74l105.16 420.07 14.13 -410.48 -119.29 -9.59z"/>
    </clipPath>
    <clipPath id="id3">
     <path d="M6647.71 12689.62l-147.61 420.18 791.82 1757.29 -379.29 1844.23 516.68 -40.74 226.2 -488.84 64.29 -392.82 357.3 844.22 488.12 -43.27 211.17 -461.13 -471.69 -960.9 409.19 14.33 83.73 -209.81 282.67 1573.86 426.53 -35.25 170.74 -353.29 145.35 320.71 56.92 -0.82 210.58 -403.83 80.42 378.14 391.21 -33.32 153.1 -297.02 61.93 280.99 766.46 -63.13 124.41 -238.19 49.76 205.25 393.85 -13.36 199.14 -323.84 188.16 287.43 298.15 -20.9 211.32 -327.62 -311.08 -1107.29 154.55 11.56 111.47 -175.57c5.14,34.41 11.65,71.95 20.07,112.24 24.35,116.49 64.71,255.95 104.37,358.84 39.66,102.89 78.63,169.21 113.42,224.49 34.79,55.27 65.41,99.49 90.46,122.44 25.05,22.96 44.53,24.66 50.1,30.62 5.56,5.95 -2.79,16.15 -11.14,26.36 -34.79,52.72 -69.58,105.44 -104.37,158.16 26.44,62.92 52.88,125.84 79.32,187.07 26.45,61.22 52.89,120.75 92.55,170.07 39.66,49.32 92.54,88.43 141.95,108.84 49.4,20.41 95.32,22.11 138.46,-2.55 16.36,-9.35 32.32,-22.49 48.04,-37.99l0 -1999.53 -57.78 -12.63c-30.61,42.52 -61.23,85.03 -77.93,103.74 -16.7,18.71 -19.48,13.6 -36.88,-10.21 -17.39,-23.8 -49.4,-66.32 -85.58,-100.33 -36.19,-34.02 -76.54,-59.53 -114.81,-73.13 -38.27,-13.61 -74.46,-15.31 -104.38,-6.8 -29.92,8.5 -53.58,27.21 -70.28,45.06 -16.7,17.86 -26.44,34.87 -36.18,51.87l-173.6 220.64 -30.54 -340.36 -163.24 -31.03 -130.59 252.67 3.63 416.7 -221.27 -775.77 -317.79 -70.1 -159.71 306.69 -246.83 -387.8 -367.12 -68.44 -114.07 215.45 -73.45 -260.63 -784.55 -154.21 -145.39 295 -78.12 -330.78 -442.25 -91.78 -154.37 356.91 16.68 576.15 -433.9 -1050.32 -460.81 -79.41 -139.91 382.2 144.32 789.96 -290.81 -23.47 -174.94 404.52 67.55 449.58 -347.34 -681.8 219.4 -1427.68 -380.05 -72.13 -143.18 372.78 -65.2 338.36 -425.32 -841.79 -482.19 -93.99zm4794.95 2481.63l108.92 430.4 -268.68 8.87 -46.12 -221.34 91.05 -5.76 114.83 -212.17zm-236.01 -931.78l72.62 288.41 -246.9 -13.32 -14.52 -88.74 90.77 4.44 98.03 -190.79z"/>
    </clipPath>
    <clipPath id="id4">
     <path d="M6647.71 12689.62l-147.61 420.18 791.82 1757.29 -379.29 1844.23 516.68 -40.74 226.2 -488.84 64.29 -392.82 357.3 844.22 488.12 -43.27 211.17 -461.13 -471.69 -960.9 409.19 14.33 83.73 -209.81 282.67 1573.86 426.53 -35.25 170.74 -353.29 145.35 320.71 56.92 -0.82 210.58 -403.83 80.42 378.14 391.21 -33.32 153.1 -297.02 61.93 280.99 766.46 -63.13 124.41 -238.19 49.76 205.25 393.85 -13.36 199.14 -323.84 188.16 287.43 298.15 -20.9 211.32 -327.62 -311.08 -1107.29 154.55 11.56 111.47 -175.57c5.14,34.41 11.65,71.95 20.07,112.24 24.35,116.49 64.71,255.95 104.37,358.84 39.66,102.89 78.63,169.21 113.42,224.49 34.79,55.27 65.41,99.49 90.46,122.44 25.05,22.96 44.53,24.66 50.1,30.62 5.56,5.95 -2.79,16.15 -11.14,26.36 -34.79,52.72 -69.58,105.44 -104.37,158.16 26.44,62.92 52.88,125.84 79.32,187.07 26.45,61.22 52.89,120.75 92.55,170.07 39.66,49.32 92.54,88.43 141.95,108.84 49.4,20.41 95.32,22.11 138.46,-2.55 43.14,-24.66 83.5,-75.68 123.86,-126.7 32.01,-42.52 64.02,-85.04 96.02,-127.55 13.92,74.83 27.84,149.66 41.75,224.49 69.59,1.7 139.17,3.4 208.75,5.1 64.02,-85.04 128.03,-170.07 158.65,-221.09 30.61,-51.02 27.83,-68.02 16,-125 -11.82,-56.97 -32.7,-153.91 -44.53,-259.35 -11.83,-105.44 -14.61,-219.38 -12.53,-357.99 2.09,-138.6 9.05,-301.87 14.62,-409.01 5.56,-107.14 9.74,-158.16 13.91,-209.18 -37.57,-110.54 -75.15,-221.08 -112.72,-331.63 -171.17,-37.41 -342.34,-74.82 -513.52,-112.24 -30.61,42.52 -61.23,85.03 -77.93,103.74 -16.7,18.71 -19.48,13.6 -36.88,-10.21 -17.39,-23.8 -49.4,-66.32 -85.58,-100.33 -36.19,-34.02 -76.54,-59.53 -114.81,-73.13 -38.27,-13.61 -74.46,-15.31 -104.38,-6.8 -29.92,8.5 -53.58,27.21 -70.28,45.06 -16.7,17.86 -26.44,34.87 -36.18,51.87l-173.6 220.64 -30.54 -340.36 -163.24 -31.03 -130.59 252.67 3.63 416.7 -221.27 -775.77 -317.79 -70.1 -159.71 306.69 -246.83 -387.8 -367.12 -68.44 -114.07 215.45 -73.45 -260.63 -784.55 -154.21 -145.39 295 -78.12 -330.78 -442.25 -91.78 -154.37 356.91 16.68 576.15 -433.9 -1050.32 -460.81 -79.41 -139.91 382.2 144.32 789.96 -290.81 -23.47 -174.94 404.52 67.55 449.58 -347.34 -681.8 219.4 -1427.68 -380.05 -72.13 -143.18 372.78 -65.2 338.36 -425.32 -841.79 -482.19 -93.99zm4794.95 2481.63l108.92 430.4 -268.68 8.87 -46.12 -221.34 91.05 -5.76 114.83 -212.17zm-236.01 -931.78l72.62 288.41 -246.9 -13.32 -14.52 -88.74 90.77 4.44 98.03 -190.79zm2572.58 526.74l105.16 420.07 14.13 -410.48 -119.29 -9.59z"/>
    </clipPath>
    <clipPath id="id5">
     <path d="M12700.35 14795.52l154.55 11.56 111.47 -175.58c5.15,34.42 11.65,71.96 20.07,112.25 24.36,116.49 64.71,255.94 104.37,358.83 39.67,102.89 78.64,169.22 113.43,224.49 34.79,55.27 65.4,99.49 90.45,122.45 25.05,22.96 44.53,24.66 50.1,30.61 3.57,3.82 1.42,9.39 -2.79,15.58 -2.28,4.9 -6.86,10.53 -11.46,16.15l-101.09 153.19c26.39,62.8 52.78,125.58 79.16,186.67 26.44,61.23 52.88,120.75 92.54,170.08 39.66,49.31 92.55,88.43 141.95,108.84 49.4,20.4 95.33,22.1 138.47,-2.55 43.14,-24.67 83.5,-75.69 123.85,-126.71 32.01,-42.51 64.02,-85.03 96.03,-127.55 13.91,74.83 27.83,149.66 41.75,224.49 69.58,1.7 139.16,3.4 208.75,5.1 64.01,-85.03 128.03,-170.07 158.64,-221.08l1.55 -2.61c25.61,-45 22.53,-63.12 11.34,-117.03 -11.82,-56.97 -32.7,-153.91 -44.53,-259.35 -11.83,-105.44 -14.61,-219.38 -12.53,-357.99 2.09,-138.6 9.05,-301.87 14.62,-409.01 5.56,-107.14 9.74,-158.16 13.91,-209.18 -37.57,-110.54 -75.15,-221.08 -112.72,-331.63 -171.17,-37.41 -342.34,-74.82 -513.52,-112.24 -30.61,42.52 -61.23,85.03 -77.93,103.74 -16.7,18.71 -19.48,13.6 -36.88,-10.21 -17.39,-23.8 -49.4,-66.32 -85.58,-100.33 -36.19,-34.02 -76.54,-59.53 -114.81,-73.13 -38.27,-13.61 -74.46,-15.31 -104.38,-6.8 -29.92,8.5 -53.58,27.21 -70.28,45.06 -13.02,13.92 -21.82,27.33 -29.67,40.61l-3.39 5.9 -0.14 0.17 -2.98 5.19 -173.6 220.64 -30.54 -340.36 -162.93 -30.97 -127.78 247.25 3.63 416.7c25.91,53.29 38.33,138.89 48.9,188.76zm1078.88 -29.31l105.16 420.07 0.54 -15.67 2.58 10.31 14.12 -410.49 -119.29 -9.59 1.44 5.74 -4.55 -0.37z"/>
    </clipPath>
     <clipPath id="id6">
      <path d="M12700.35 14795.52l154.55 11.56 111.47 -175.58c5.15,34.42 11.65,71.96 20.07,112.25 24.36,116.49 64.71,255.94 104.37,358.83 39.67,102.89 78.64,169.22 113.43,224.49 34.79,55.27 65.4,99.49 90.45,122.45 25.05,22.96 44.53,24.66 50.1,30.61 3.57,3.82 1.42,9.39 -2.79,15.58 -2.28,4.9 -6.86,10.53 -11.46,16.15l-101.09 153.19c26.39,62.8 52.78,125.58 79.16,186.67 26.44,61.23 52.88,120.75 92.54,170.08 39.66,49.31 92.55,88.43 141.95,108.84 49.4,20.4 95.33,22.1 138.47,-2.55 43.14,-24.67 83.5,-75.69 123.85,-126.71 32.01,-42.51 64.02,-85.03 96.03,-127.55 13.91,74.83 27.83,149.66 41.75,224.49 69.58,1.7 139.16,3.4 208.75,5.1 64.01,-85.03 128.03,-170.07 158.64,-221.08l1.55 -2.61c25.61,-45 22.53,-63.12 11.34,-117.03 -11.82,-56.97 -32.7,-153.91 -44.53,-259.35 -11.83,-105.44 -14.61,-219.38 -12.53,-357.99 2.09,-138.6 9.05,-301.87 14.62,-409.01 5.56,-107.14 9.74,-158.16 13.91,-209.18 -37.57,-110.54 -75.15,-221.08 -112.72,-331.63 -171.17,-37.41 -342.34,-74.82 -513.52,-112.24 -30.61,42.52 -61.23,85.03 -77.93,103.74 -16.7,18.71 -19.48,13.6 -36.88,-10.21 -17.39,-23.8 -49.4,-66.32 -85.58,-100.33 -36.19,-34.02 -76.54,-59.53 -114.81,-73.13 -38.27,-13.61 -74.46,-15.31 -104.38,-6.8 -29.92,8.5 -53.58,27.21 -70.28,45.06 -13.02,13.92 -21.82,27.33 -29.67,40.61l-3.39 5.9 -0.14 0.17 -2.98 5.19 -173.6 220.64 -30.54 -340.36 -162.93 -30.97 -127.78 247.25 3.63 416.7c25.91,53.29 38.33,138.89 48.9,188.76zm1078.88 -29.31l105.16 420.07 0.54 -15.67 2.58 10.31 14.12 -410.49 -119.29 -9.59 1.44 5.74 -4.55 -0.37z"/>
     </clipPath>
     <clipPath id="id7">
      <path d="M12700.35 14795.52l154.55 11.56 111.47 -175.58c5.15,34.42 11.65,71.96 20.07,112.25 24.36,116.49 64.71,255.94 104.37,358.83 39.67,102.89 78.64,169.22 113.43,224.49 34.79,55.27 65.4,99.49 90.45,122.45 25.05,22.96 44.53,24.66 50.1,30.61 3.57,3.82 1.42,9.39 -2.79,15.58 -2.28,4.9 -6.86,10.53 -11.46,16.15l-101.09 153.19c26.39,62.8 52.78,125.58 79.16,186.67 26.44,61.23 52.88,120.75 92.54,170.08 39.66,49.31 92.55,88.43 141.95,108.84 49.4,20.4 95.33,22.1 138.47,-2.55 43.14,-24.67 83.5,-75.69 123.85,-126.71 32.01,-42.51 64.02,-85.03 96.03,-127.55 13.91,74.83 27.83,149.66 41.75,224.49 69.58,1.7 139.16,3.4 208.75,5.1 64.01,-85.03 128.03,-170.07 158.64,-221.08l1.55 -2.61c25.61,-45 22.53,-63.12 11.34,-117.03 -11.82,-56.97 -32.7,-153.91 -44.53,-259.35 -11.83,-105.44 -14.61,-219.38 -12.53,-357.99 2.09,-138.6 9.05,-301.87 14.62,-409.01 5.56,-107.14 9.74,-158.16 13.91,-209.18 -37.57,-110.54 -75.15,-221.08 -112.72,-331.63 -171.17,-37.41 -342.34,-74.82 -513.52,-112.24 -30.61,42.52 -61.23,85.03 -77.93,103.74 -16.7,18.71 -19.48,13.6 -36.88,-10.21 -17.39,-23.8 -49.4,-66.32 -85.58,-100.33 -36.19,-34.02 -76.54,-59.53 -114.81,-73.13 -38.27,-13.61 -74.46,-15.31 -104.38,-6.8 -29.92,8.5 -53.58,27.21 -70.28,45.06 -13.02,13.92 -21.82,27.33 -29.67,40.61l-3.39 5.9 -0.14 0.17 -2.98 5.19 -173.6 220.64 -30.54 -340.36 -162.93 -30.97 -127.78 247.25 3.63 416.7c25.91,53.29 38.33,138.89 48.9,188.76zm1078.88 -29.31l105.16 420.07 0.54 -15.67 2.58 10.31 14.12 -410.49 -119.29 -9.59 1.44 5.74 -4.55 -0.37z"/>
     </clipPath>
    <clipPath id="id8">
     <path d="M6647.71 12689.62l-147.61 420.18 791.82 1757.29 -379.29 1844.23 516.68 -40.74 226.2 -488.84 64.29 -392.82 357.3 844.22 488.12 -43.27 211.17 -461.13 -471.69 -960.9 409.19 14.33 83.73 -209.81 282.67 1573.86 426.53 -35.25 170.74 -353.29 145.35 320.71 56.92 -0.82 210.58 -403.83 80.42 378.14 391.21 -33.32 153.1 -297.02 61.93 280.99 766.46 -63.13 124.41 -238.19 49.76 205.25 393.85 -13.36 199.14 -323.84 188.16 287.43 298.15 -20.9 211.32 -327.62 -311.08 -1107.29 154.55 11.56 111.47 -175.57c5.14,34.41 11.65,71.95 20.07,112.24 24.35,116.49 64.71,255.95 104.37,358.84 39.66,102.89 78.63,169.21 113.42,224.49 34.79,55.27 65.41,99.49 90.46,122.44 25.05,22.96 44.53,24.66 50.1,30.62 5.56,5.95 -2.79,16.15 -11.14,26.36 -34.79,52.72 -69.58,105.44 -104.37,158.16 26.44,62.92 52.88,125.84 79.32,187.07 26.45,61.22 52.89,120.75 92.55,170.07 39.66,49.32 92.54,88.43 141.95,108.84 49.4,20.41 95.32,22.11 138.46,-2.55 43.14,-24.66 83.5,-75.68 123.86,-126.7 32.01,-42.52 64.02,-85.04 96.02,-127.55 13.92,74.83 27.84,149.66 41.75,224.49 69.59,1.7 139.17,3.4 208.75,5.1 64.02,-85.04 128.03,-170.07 158.65,-221.09 30.61,-51.02 27.83,-68.02 16,-125 -11.82,-56.97 -32.7,-153.91 -44.53,-259.35 -11.83,-105.44 -14.61,-219.38 -12.53,-357.99 2.09,-138.6 9.05,-301.87 14.62,-409.01 5.56,-107.14 9.74,-158.16 13.91,-209.18 -37.57,-110.54 -75.15,-221.08 -112.72,-331.63 -171.17,-37.41 -342.34,-74.82 -513.52,-112.24 -30.61,42.52 -61.23,85.03 -77.93,103.74 -16.7,18.71 -19.48,13.6 -36.88,-10.21 -17.39,-23.8 -49.4,-66.32 -85.58,-100.33 -36.19,-34.02 -76.54,-59.53 -114.81,-73.13 -38.27,-13.61 -74.46,-15.31 -104.38,-6.8 -29.92,8.5 -53.58,27.21 -70.28,45.06 -16.7,17.86 -26.44,34.87 -36.18,51.87l-173.6 220.64 -30.54 -340.36 -163.24 -31.03 -130.59 252.67 3.63 416.7 -221.27 -775.77 -317.79 -70.1 -159.71 306.69 -246.83 -387.8 -367.12 -68.44 -114.07 215.45 -73.45 -260.63 -784.55 -154.21 -145.39 295 -78.12 -330.78 -442.25 -91.78 -154.37 356.91 16.68 576.15 -433.9 -1050.32 -460.81 -79.41 -139.91 382.2 144.32 789.96 -290.81 -23.47 -174.94 404.52 67.55 449.58 -347.34 -681.8 219.4 -1427.68 -380.05 -72.13 -143.18 372.78 -65.2 338.36 -425.32 -841.79 -482.19 -93.99zm4794.95 2481.63l108.92 430.4 -268.68 8.87 -46.12 -221.34 91.05 -5.76 114.83 -212.17zm-236.01 -931.78l72.62 288.41 -246.9 -13.32 -14.52 -88.74 90.77 4.44 98.03 -190.79zm2572.58 526.74l105.16 420.07 14.13 -410.48 -119.29 -9.59z"/>
    </clipPath>
 </defs>
 <g id="Camada_x0020_1">
  <metadata id="CorelCorpID_0Corel-Layer"/>
  <g>
  </g>
  <g style="clip-path:url(#id0)">
   <g>
   </g>
   <g style="clip-path:url(#id1)">
    <image x="6046.95" y="5173.25" width="9565.29" height="6007.9" xlink:href="logo2_Images\logo2_ImgID1.png"/>
   </g>
   <g style="clip-path:url(#id2)">
   </g>
   <g style="clip-path:url(#id3)">
    <image x="6021.46" y="11682.2" width="7705.03" height="5511.44" xlink:href="logo2_Images\logo2_ImgID2.png"/>
   </g>
   <g style="clip-path:url(#id4)">
    <g>
    </g>
   </g>
   <g style="clip-path:url(#id5)">
    <g>
    </g>
    <g style="clip-path:url(#id6)">
     <image x="5622.65" y="11282.51" width="10036.05" height="6303.58" xlink:href="logo2_Images\logo2_ImgID3.png"/>
    </g>
    <g style="clip-path:url(#id7)">
    </g>
   </g>
   <g style="clip-path:url(#id8)">
    <path class="fil0" d="M12700.35 14795.52l154.55 11.56 111.47 -175.58c5.15,34.42 11.65,71.96 20.07,112.25 24.36,116.49 64.71,255.94 104.37,358.83 39.67,102.89 78.64,169.22 113.43,224.49 34.79,55.27 65.4,99.49 90.45,122.45 25.05,22.96 44.53,24.66 50.1,30.61 5.57,5.95 -2.78,16.16 -11.13,26.36 -34.79,52.72 -69.59,105.44 -104.38,158.16 26.45,62.93 52.89,125.85 79.33,187.07 26.44,61.23 52.88,120.75 92.54,170.08 39.66,49.31 92.55,88.43 141.95,108.84 49.4,20.4 95.33,22.1 138.47,-2.55 43.14,-24.67 83.5,-75.69 123.85,-126.71 32.01,-42.51 64.02,-85.03 96.03,-127.55 13.91,74.83 27.83,149.66 41.75,224.49 69.58,1.7 139.16,3.4 208.75,5.1 64.01,-85.03 128.03,-170.07 158.64,-221.08 30.62,-51.02 27.84,-68.03 16.01,-125 -11.83,-56.97 -32.71,-153.91 -44.54,-259.35 -11.82,-105.44 -14.61,-219.39 -12.52,-357.99 2.08,-138.61 9.04,-301.87 14.61,-409.01 5.57,-107.15 9.74,-158.16 13.92,-209.18 -37.58,-110.55 -75.15,-221.09 -112.73,-331.63 -171.17,-37.42 -342.34,-74.83 -513.51,-112.24 -30.62,42.51 -61.23,85.03 -77.93,103.74 -16.7,18.7 -19.49,13.6 -36.88,-10.21 -17.4,-23.81 -49.4,-66.32 -85.59,-100.33 -36.18,-34.02 -76.54,-59.53 -114.81,-73.13 -38.27,-13.61 -74.45,-15.31 -104.37,-6.81 -29.92,8.51 -53.58,27.21 -70.28,45.07 -16.7,17.86 -26.44,34.86 -36.18,51.87l-173.6 220.63 -30.54 -340.36 -163.24 -31.03 -130.59 252.68 3.63 416.7c25.91,53.29 38.33,138.89 48.9,188.76zm1081.99 -34.68l105.17 420.08 14.12 -410.49 -119.29 -9.59z"/>
   </g>
  </g>
  <path class="fil0" d="M6647.71 12689.62l-147.61 420.18 791.82 1757.29 -379.29 1844.23 516.68 -40.74 226.2 -488.84 64.29 -392.82 357.3 844.22 488.12 -43.27 211.17 -461.13 -471.69 -960.9 409.19 14.33 83.73 -209.81 282.67 1573.86 426.53 -35.25 170.74 -353.29 145.35 320.71 56.92 -0.82 210.58 -403.83 80.42 378.14 391.21 -33.32 153.1 -297.02 61.93 280.99 766.46 -63.13 124.41 -238.19 49.76 205.25 393.85 -13.36 199.14 -323.84 188.16 287.43 298.15 -20.9 211.32 -327.62 -311.08 -1107.29 154.55 11.56 111.47 -175.57c5.14,34.41 11.65,71.95 20.07,112.24 24.35,116.49 64.71,255.95 104.37,358.84 39.66,102.89 78.63,169.21 113.42,224.49 34.79,55.27 65.41,99.49 90.46,122.44 25.05,22.96 44.53,24.66 50.1,30.62 5.56,5.95 -2.79,16.15 -11.14,26.36 -34.79,52.72 -69.58,105.44 -104.37,158.16 26.44,62.92 52.88,125.84 79.32,187.07 26.45,61.22 52.89,120.75 92.55,170.07 39.66,49.32 92.54,88.43 141.95,108.84 49.4,20.41 95.32,22.11 138.46,-2.55 43.14,-24.66 83.5,-75.68 123.86,-126.7 32.01,-42.52 64.02,-85.04 96.02,-127.55 13.92,74.83 27.84,149.66 41.75,224.49 69.59,1.7 139.17,3.4 208.75,5.1 64.02,-85.04 128.03,-170.07 158.65,-221.09 30.61,-51.02 27.83,-68.02 16,-125 -11.82,-56.97 -32.7,-153.91 -44.53,-259.35 -11.83,-105.44 -14.61,-219.38 -12.53,-357.99 2.09,-138.6 9.05,-301.87 14.62,-409.01 5.56,-107.14 9.74,-158.16 13.91,-209.18 -37.57,-110.54 -75.15,-221.08 -112.72,-331.63 -171.17,-37.41 -342.34,-74.82 -513.52,-112.24 -30.61,42.52 -61.23,85.03 -77.93,103.74 -16.7,18.71 -19.48,13.6 -36.88,-10.21 -17.39,-23.8 -49.4,-66.32 -85.58,-100.33 -36.19,-34.02 -76.54,-59.53 -114.81,-73.13 -38.27,-13.61 -74.46,-15.31 -104.38,-6.8 -29.92,8.5 -53.58,27.21 -70.28,45.06 -16.7,17.86 -26.44,34.87 -36.18,51.87l-173.6 220.64 -30.54 -340.36 -163.24 -31.03 -130.59 252.67 3.63 416.7 -221.27 -775.77 -317.79 -70.1 -159.71 306.69 -246.83 -387.8 -367.12 -68.44 -114.07 215.45 -73.45 -260.63 -784.55 -154.21 -145.39 295 -78.12 -330.78 -442.25 -91.78 -154.37 356.91 16.68 576.15 -433.9 -1050.32 -460.81 -79.41 -139.91 382.2 144.32 789.96 -290.81 -23.47 -174.94 404.52 67.55 449.58 -347.34 -681.8 219.4 -1427.68 -380.05 -72.13 -143.18 372.78 -65.2 338.36 -425.32 -841.79 -482.19 -93.99zm4794.95 2481.63l108.92 430.4 -268.68 8.87 -46.12 -221.34 91.05 -5.76 114.83 -212.17zm-236.01 -931.78l72.62 288.41 -246.9 -13.32 -14.52 -88.74 90.77 4.44 98.03 -190.79zm2572.58 526.74l105.16 420.07 14.13 -410.48 -119.29 -9.59z"/>
 </g>
</svg>
